<svg width="13" height="12" viewBox="0 0 13 12" fill="none" xmlns="http://www.w3.org/2000/svg">
<path d="M12.129 7.71866C11.4143 10.386 8.67265 11.9689 6.00532 11.2542L2.78557 10.3915C2.2521 10.2485 1.93552 9.70019 2.07846 9.16672C2.2214 8.63325 2.76974 8.31667 3.30321 8.45961L1.37136 7.94197C0.837889 7.79903 0.521307 7.2507 0.664248 6.71723C0.80719 6.18376 1.35553 5.86718 1.88899 6.01012L1.24504 5.83758C0.711577 5.69464 0.394994 5.1463 0.537936 4.61283C0.680878 4.07937 1.22921 3.76278 1.76268 3.90573L2.40663 4.07827C1.87317 3.93533 1.55658 3.38699 1.69952 2.85353C1.84247 2.32006 2.3908 2.00348 2.92427 2.14642L6.78797 3.1817C6.25451 3.03875 5.93792 2.49042 6.08087 1.95695C6.22381 1.42349 6.77214 1.1069 7.30561 1.24984L8.59351 1.59494C11.2608 2.30965 12.8438 5.05133 12.129 7.71866Z" fill="white"/>
<path d="M6.78797 3.1817L8.39785 3.61306M6.78797 3.1817L2.92427 2.14642C2.3908 2.00348 1.84247 2.32006 1.69952 2.85353C1.55658 3.38699 1.87317 3.93533 2.40663 4.07827M6.78797 3.1817C6.25451 3.03875 5.93792 2.49042 6.08087 1.95695C6.22381 1.42349 6.77214 1.1069 7.30561 1.24984L8.59351 1.59494C11.2608 2.30965 12.8438 5.05133 12.129 7.71866C11.4143 10.386 8.67265 11.9689 6.00532 11.2542L2.78557 10.3915C2.2521 10.2485 1.93552 9.70019 2.07846 9.16672C2.2214 8.63325 2.76974 8.31667 3.30321 8.45961M2.40663 4.07827L5.94836 5.02727M2.40663 4.07827L1.76268 3.90573C1.22921 3.76278 0.680878 4.07937 0.537936 4.61283C0.394994 5.1463 0.711577 5.69464 1.24504 5.83758L1.88899 6.01012M1.88899 6.01012L5.43072 6.95913M1.88899 6.01012C1.35553 5.86718 0.80719 6.18376 0.664248 6.71723C0.521307 7.2507 0.837889 7.79903 1.37136 7.94197L3.30321 8.45961M3.30321 8.45961L4.91308 8.89098" stroke="#2E2E2E" stroke-linecap="round" stroke-linejoin="round"/>
</svg>
