<svg width="159" height="244" viewBox="0 0 159 244" fill="none" xmlns="http://www.w3.org/2000/svg">
<path fill-rule="evenodd" clip-rule="evenodd" d="M118.425 41.1546C122.669 47.9599 135.191 80.8549 134.393 87.7112C133.816 92.645 132.101 98.1658 137.67 102.394C143.238 106.621 147.857 112.882 152.245 118.046C156.634 123.209 162.127 128.143 156.812 133.953C151.498 139.763 144.928 137.917 145.777 143.021C146.626 148.125 151.575 148.346 149.469 154.182C147.364 160.017 143.756 160.298 143.756 160.298C143.756 160.298 148.417 166.253 145.938 169.136C143.459 172.02 140.513 172.786 141.863 176.52C143.213 180.254 150.811 191.509 143.281 200.993C135.751 210.478 113.153 208.539 107.627 207.178C102.101 205.817 98.8068 203.282 97.6947 212.801C96.5826 222.32 90.2073 228.113 89.6386 232.944C89.0698 237.776 89.9442 242.302 87.4654 250H-27.1369C-17.7225 232.613 -4.0636 212.494 -5.6935 193.856C-7.52713 172.913 -14.5646 162.535 -28.198 147.189C-41.8314 131.843 -62.9013 92.0581 -42.5445 49.7973C-22.1878 7.53656 33.2288 -4.39818 64.8675 1.35228C96.5062 7.10273 112.703 24.8134 118.425 41.1546Z" fill="white"/>
</svg>
