<svg width="210" height="250" viewBox="0 0 210 250" fill="none" xmlns="http://www.w3.org/2000/svg">
<path fill-rule="evenodd" clip-rule="evenodd" d="M40.575 41.1546C36.3305 47.9599 23.8092 80.8549 24.6071 87.7112C25.1844 92.645 26.8992 98.1658 21.3304 102.394C15.7615 106.621 11.1435 112.882 6.75464 118.046C2.3658 123.209 -3.12663 128.143 2.18752 133.953C7.50167 139.763 14.0722 137.917 13.2233 143.021C12.3744 148.125 7.42529 148.346 9.53058 154.182C11.6359 160.017 15.2437 160.298 15.2437 160.298C15.2437 160.298 10.5832 166.253 13.062 169.136C15.5408 172.02 18.4865 172.786 17.1368 176.52C15.787 180.254 8.18929 191.509 15.7191 200.993C23.2489 210.478 45.8467 208.539 51.3731 207.178C56.8995 205.817 60.1932 203.282 61.3053 212.801C62.4174 222.32 68.7927 228.113 69.3614 232.944C69.9302 237.776 69.0558 242.302 71.5346 250H186.137C176.722 232.613 163.064 212.494 164.693 193.856C166.527 172.913 173.565 162.535 187.198 147.189C200.831 131.843 221.901 92.0581 201.545 49.7973C181.188 7.53656 125.771 -4.39818 94.1325 1.35228C62.4938 7.10273 46.2967 24.8134 40.575 41.1546Z" fill="white"/>
</svg>
